<?xml version="1.0" standalone="no"?>
<!DOCTYPE svg PUBLIC "-//W3C//DTD SVG 20010904//EN"
 "http://www.w3.org/TR/2001/REC-SVG-20010904/DTD/svg10.dtd">
<svg version="1.0" xmlns="http://www.w3.org/2000/svg"
 width="2048.000000pt" height="2048.000000pt" viewBox="0 0 2048.000000 2048.000000"
 preserveAspectRatio="xMidYMid meet">

<g transform="translate(0.000000,2048.000000) scale(0.100000,-0.100000)"
fill="rgb(233 213 255)" stroke="none">
<path d="M6612 15809 c-399 -84 -649 -353 -726 -781 l-7 -36 943 1 c1028 2
1039 2 1154 -54 139 -66 259 -243 284 -419 6 -39 10 -740 10 -1730 0 -1006 4
-1712 10 -1784 17 -197 62 -356 139 -488 55 -94 158 -224 238 -299 86 -80 242
-191 260 -185 7 3 12 0 10 -7 -1 -7 6 -11 15 -11 10 1 16 -2 13 -6 -3 -4 30
-24 73 -45 238 -114 415 -158 697 -171 779 -35 1459 462 1559 1139 14 91 16
331 17 1883 0 979 4 1819 8 1868 l6 88 61 57 c33 31 81 69 106 84 105 61 -20
58 2093 64 1062 3 1931 6 1932 7 1 1 3 160 5 354 l3 352 -1940 0 c-1243 0
-1990 -4 -2080 -10 -170 -13 -360 -44 -475 -77 -180 -52 -393 -176 -472 -275
-84 -106 -160 -253 -188 -363 -37 -144 -40 -251 -41 -1369 -1 -600 -4 -1410
-8 -1801 l-7 -710 -25 -64 c-27 -74 -106 -167 -173 -206 -111 -64 -301 -90
-446 -61 -156 31 -264 105 -319 220 -56 114 -53 -3 -52 2458 l2 2267 -818 4
c-897 4 -806 -2 -1193 71 -318 60 -502 70 -668 35z"/>
<path d="M6517 14863 l-158 -4 4 -2462 c4 -2701 -1 -2515 62 -2773 36 -151
147 -442 175 -459 6 -4 7 1 3 12 -8 20 -9 21 168 -128 240 -201 400 -288 649
-355 65 -18 295 -25 430 -15 30 3 62 2 70 -1 8 -2 12 -3 8 -1 -19 11 -4 21 50
33 31 7 79 21 106 31 28 10 61 16 75 13 21 -5 23 -3 11 6 -12 9 -7 10 20 5 28
-6 33 -5 23 6 -10 10 5 21 70 53 85 43 205 118 253 158 80 67 204 181 242 222
24 26 45 46 47 44 1 -2 7 -13 14 -25 10 -20 9 -21 -17 -18 -27 3 -28 2 -25
-32 2 -33 1 -34 -11 -17 -12 15 -16 16 -30 5 -11 -9 -13 -18 -7 -25 6 -7 -3
-22 -29 -45 -22 -19 -37 -38 -34 -42 3 -5 -2 -6 -10 -3 -9 3 -13 11 -10 16 4
6 1 9 -7 6 -8 -3 -14 -11 -14 -19 0 -8 -8 -13 -18 -11 -9 2 -17 -2 -17 -8 0
-5 4 -10 9 -10 5 0 12 -7 15 -16 3 -8 2 -13 -3 -9 -5 3 -25 -4 -45 -16 -19
-11 -39 -18 -44 -15 -5 3 -17 -3 -27 -14 -10 -11 -24 -20 -32 -20 -7 0 -13 -4
-13 -10 0 -5 7 -7 15 -4 34 13 12 -9 -27 -27 -24 -11 -50 -24 -58 -28 -8 -5
-32 -17 -52 -26 -21 -9 -38 -20 -38 -25 0 -6 -5 -10 -11 -10 -5 0 -7 5 -4 10
12 20 -14 10 -29 -11 -8 -12 -19 -18 -25 -15 -7 4 -9 1 -5 -8 4 -11 -10 -20
-58 -35 -54 -17 -57 -19 -23 -16 22 2 32 2 23 -1 -10 -3 -18 -10 -18 -15 0 -5
-11 -9 -24 -9 -14 0 -28 -5 -31 -10 -3 -5 -17 -10 -30 -10 -13 0 -28 -7 -33
-17 -7 -12 -24 -16 -58 -17 -27 0 -41 -2 -31 -4 24 -5 21 -17 -8 -40 -14 -11
-25 -24 -25 -29 0 -13 -55 -43 -78 -43 -11 0 -29 -11 -40 -25 -22 -27 -38 -32
-44 -13 -3 8 -13 6 -34 -8 -16 -11 -47 -26 -69 -33 -22 -8 -52 -22 -67 -32
-14 -11 -35 -19 -46 -19 -11 0 -22 -4 -24 -10 -5 -14 -78 -42 -78 -30 0 6 -13
5 -33 -4 -24 -9 -39 -11 -51 -4 -12 7 -26 7 -42 -1 -13 -6 -31 -8 -39 -5 -14
6 -71 -23 -63 -31 2 -2 21 0 43 5 50 11 62 3 35 -22 -13 -12 -19 -26 -15 -37
5 -12 3 -13 -5 -5 -9 9 -9 17 -1 33 13 23 2 28 -17 9 -9 -9 -12 -9 -12 2 0 10
-4 9 -18 -3 -16 -15 -19 -15 -31 4 -7 12 -8 18 -2 14 17 -10 13 12 -5 30 -13
12 -14 19 -5 28 6 6 11 16 11 21 0 6 -8 -1 -18 -17 -21 -31 -37 -26 -20 7 11
20 10 20 -9 3 -19 -16 -33 -14 -33 5 0 5 5 6 11 2 8 -4 8 -1 1 13 -15 27 -40
47 -62 48 -14 1 -5 -14 33 -57 31 -36 56 -57 64 -53 10 3 13 -1 8 -14 -11 -36
277 -286 475 -413 118 -75 175 -106 326 -176 249 -115 464 -184 769 -247 99
-20 198 -45 220 -54 67 -30 234 -163 349 -277 280 -279 473 -567 576 -859 17
-49 49 -155 71 -234 21 -79 41 -146 43 -148 2 -2 7 15 11 38 10 61 59 206 106
317 210 494 489 833 920 1118 369 244 766 368 1339 419 96 8 203 18 238 21
l62 6 0 394 0 395 -22 -6 c-73 -23 -341 -126 -442 -171 -142 -64 -382 -192
-515 -276 -123 -78 -370 -264 -508 -383 -119 -102 -392 -367 -443 -430 -28
-35 -29 -36 -9 -5 57 87 274 322 465 504 349 333 574 563 710 726 483 578 701
967 834 1492 67 262 65 198 73 3206 l3 1202 -593 0 -593 0 -2 -927 c0 -511 -2
-1295 -2 -1743 -1 -580 -5 -848 -14 -930 -37 -333 -102 -577 -259 -965 -115
-286 -107 -271 -151 -279 -20 -3 -143 -22 -272 -41 -129 -19 -309 -46 -400
-60 -91 -14 -221 -32 -290 -40 -69 -9 -172 -22 -230 -30 -58 -8 -238 -33 -400
-55 -162 -22 -342 -47 -400 -55 -58 -8 -145 -20 -193 -26 -48 -6 -85 -14 -82
-17 3 -4 -9 -12 -27 -18 -31 -10 -33 -14 -33 -57 0 -42 -1 -44 -16 -29 -9 10
-15 20 -13 24 2 3 -2 8 -8 11 -9 3 -4 14 15 34 45 48 57 47 -158 16 -181 -25
-435 -23 -547 5 -161 40 -278 105 -393 220 -162 161 -260 355 -300 592 -31
189 -36 587 -33 2685 l3 2065 -375 -2 c-206 -1 -446 -4 -533 -5z m2263 -5719
c0 -8 -4 -12 -10 -9 -5 3 -10 10 -10 16 0 5 5 9 10 9 6 0 10 -7 10 -16z m-160
-174 c-8 -5 -19 -10 -25 -10 -5 0 -3 5 5 10 8 5 20 10 25 10 6 0 3 -5 -5 -10z
m-76 -34 c-6 -15 -34 -31 -34 -19 0 5 30 32 37 33 1 0 0 -6 -3 -14z m-307
-202 c-3 -3 -12 -4 -19 -1 -8 3 -5 6 6 6 11 1 17 -2 13 -5z m-182 -104 c-35
-23 -55 -25 -55 -6 0 9 13 16 33 19 17 2 37 4 42 5 6 1 -3 -7 -20 -18z m-945
-223 c0 -6 -9 -2 -20 8 -11 10 -20 23 -20 28 0 6 9 2 20 -8 11 -10 20 -23 20
-28z m130 -137 c0 -5 -2 -10 -4 -10 -3 0 -8 5 -11 10 -3 6 -1 10 4 10 6 0 11
-4 11 -10z m31 -37 c13 -16 12 -17 -3 -4 -10 7 -18 15 -18 17 0 8 8 3 21 -13z
m3019 -288 c-232 -321 -422 -707 -490 -993 l-12 -54 -35 64 c-20 35 -66 104
-103 153 -81 107 -336 360 -403 399 -26 16 -47 30 -45 31 2 2 66 19 143 39
396 100 703 235 943 417 36 27 67 47 69 45 2 -2 -28 -48 -67 -101z"/>
<path d="M14239 14485 c-3 -2 -252 -5 -554 -5 l-548 -1 6 -2777 c7 -2929 8
-3018 53 -3322 32 -215 113 -466 206 -640 154 -285 410 -591 653 -778 l30 -23
-30 5 c-16 3 -115 22 -220 41 -227 43 -551 88 -805 112 -266 25 -890 25 -1079
0 -147 -20 -427 -75 -536 -107 -135 -39 -301 -102 -430 -164 -436 -210 -696
-472 -874 -883 -53 -122 -102 -223 -107 -223 -2 0 -38 70 -79 155 -91 192
-174 319 -296 454 -198 220 -434 390 -779 562 -575 285 -1471 397 -2313 289
-760 -98 -1438 -360 -2151 -832 -98 -65 -173 -118 -166 -118 6 0 73 18 148 39
232 67 447 116 782 180 275 52 744 107 1115 131 266 18 1055 24 1285 11 572
-33 851 -94 1188 -261 254 -126 415 -241 608 -434 118 -119 166 -179 261 -321
175 -265 290 -530 359 -832 15 -68 29 -121 31 -119 2 1 19 68 39 147 96 392
219 694 368 902 199 279 433 483 702 613 255 124 637 215 1014 243 537 40
1195 13 2065 -85 223 -25 582 -75 1315 -183 351 -52 487 -68 723 -85 26 -2 47
0 47 4 0 4 -39 33 -87 65 -155 103 -616 455 -903 690 -370 302 -569 507 -733
755 -150 227 -217 398 -264 670 -17 99 -18 267 -20 3109 -1 1685 -6 3008 -11
3013 -4 4 -11 6 -13 3z"/>
<path d="M8855 9270 c-3 -5 -1 -10 4 -10 6 0 11 5 11 10 0 6 -2 10 -4 10 -3 0
-8 -4 -11 -10z"/>
<path d="M8810 9219 c0 -5 5 -7 10 -4 6 3 10 8 10 11 0 2 -4 4 -10 4 -5 0 -10
-5 -10 -11z"/>
<path d="M8727 9129 c7 -7 15 -10 18 -7 3 3 -2 9 -12 12 -14 6 -15 5 -6 -5z"/>
<path d="M8573 8999 c-43 -27 -42 -33 2 -12 19 9 35 20 35 25 0 11 0 11 -37
-13z"/>
<path d="M8440 8900 c-8 -5 -10 -10 -5 -10 6 0 17 5 25 10 8 5 11 10 5 10 -5
0 -17 -5 -25 -10z"/>
<path d="M7968 8693 c7 -3 16 -2 19 1 4 3 -2 6 -13 5 -11 0 -14 -3 -6 -6z"/>
<path d="M7823 8663 c9 -2 14 -9 11 -15 -4 -7 -2 -8 5 -4 15 10 4 26 -17 25
-15 -1 -15 -2 1 -6z"/>
<path d="M7958 8663 c6 -2 18 -2 25 0 6 3 1 5 -13 5 -14 0 -19 -2 -12 -5z"/>
<path d="M9355 4129 c-22 -5 -56 -9 -75 -9 -19 -1 -48 -5 -65 -10 -16 -5 -54
-12 -84 -14 -53 -5 -82 -15 -45 -17 13 0 9 -5 -13 -15 -18 -8 -33 -18 -33 -24
0 -18 95 -53 164 -60 37 -4 71 -12 75 -18 4 -7 52 -14 111 -17 58 -3 123 -8
145 -11 82 -11 619 -4 770 11 22 2 78 6 125 10 47 3 99 10 115 15 61 17 94 19
99 7 3 -9 8 -8 18 4 18 22 58 42 58 29 0 -5 7 -10 15 -10 11 0 15 11 15 40 0
29 -4 40 -15 40 -8 0 -15 -5 -15 -10 0 -6 -15 -3 -32 7 -18 10 -40 18 -48 19
-8 1 -30 5 -47 9 -23 5 -33 4 -33 -4 0 -7 -4 -10 -9 -7 -5 4 -47 13 -93 22
-66 12 -181 16 -573 19 -269 1 -508 -1 -530 -6z"/>
</g>
</svg>
